<?xml version="1.0" encoding="utf-8"?>
<!-- Generator: Adobe Illustrator 15.1.0, SVG Export Plug-In . SVG Version: 6.00 Build 0)  -->
<!DOCTYPE svg PUBLIC "-//W3C//DTD SVG 1.1//EN" "http://www.w3.org/Graphics/SVG/1.1/DTD/svg11.dtd">
<svg version="1.1" id="Layer_1" xmlns="http://www.w3.org/2000/svg" xmlns:xlink="http://www.w3.org/1999/xlink" x="0px" y="0px"
	 width="400px" height="400px" viewBox="0 0 400 400" enable-background="new 0 0 400 400" xml:space="preserve">
<path fill="#D29E30" d="M200.154-0.344c-110.457,0-200,89.543-200,200s89.543,200,200,200s200-89.543,200-200
	S310.611-0.344,200.154-0.344z M333.443,246.811l-18.706,18.707c-5.961,5.961-15.625,5.961-21.586,0L200.334,172.7l-93.178,93.175
	c-5.96,5.963-15.625,5.963-21.585,0l-18.708-18.707c-5.96-5.959-5.96-15.623,0-21.584l103.971-103.97l18.347-18.347l0.36-0.36
	c5.96-5.96,15.625-5.96,21.584,0l122.317,122.319C339.404,231.186,339.404,240.85,333.443,246.811z"/>
</svg>
